<svg width="26" height="26" viewBox="0 0 26 26" fill="current" xmlns="http://www.w3.org/2000/svg">
<path d="M22.3 14.25C22.025 14.25 21.7375 14.1625 21.4625 14.1C20.9056 13.9773 20.3583 13.8143 19.825 13.6125C19.2451 13.4015 18.6077 13.4125 18.0354 13.6432C17.4631 13.874 16.9964 14.3083 16.725 14.8625L16.45 15.425C15.2325 14.7477 14.1137 13.9065 13.125 12.925C12.1435 11.9363 11.3023 10.8175 10.625 9.59999L11.15 9.24999C11.7042 8.97863 12.1385 8.5119 12.3692 7.9396C12.6 7.3673 12.611 6.72988 12.4 6.14999C12.2015 5.61552 12.0387 5.06849 11.9125 4.51249C11.85 4.23749 11.8 3.94999 11.7625 3.66249C11.6107 2.78201 11.1495 1.98467 10.462 1.41404C9.77453 0.843409 8.90587 0.536999 8.0125 0.549988H4.2625C3.72379 0.54493 3.19032 0.656004 2.69839 0.875651C2.20647 1.0953 1.76764 1.41836 1.41179 1.82284C1.05594 2.22732 0.791422 2.70373 0.636239 3.21963C0.481056 3.73553 0.438853 4.27881 0.512504 4.81249C1.17843 10.0492 3.57004 14.9148 7.30957 18.6408C11.0491 22.3667 15.9234 24.7406 21.1625 25.3875H21.6375C22.5593 25.3888 23.4493 25.0506 24.1375 24.4375C24.533 24.0838 24.8489 23.6502 25.0643 23.1654C25.2798 22.6806 25.39 22.1555 25.3875 21.625V17.875C25.3722 17.0067 25.056 16.1707 24.4929 15.5096C23.9298 14.8485 23.1548 14.4033 22.3 14.25V14.25ZM22.925 21.75C22.9248 21.9275 22.8868 22.1029 22.8135 22.2645C22.7402 22.4262 22.6333 22.5704 22.5 22.6875C22.3607 22.8087 22.1975 22.8993 22.0208 22.9531C21.8442 23.007 21.6582 23.0229 21.475 23C16.7936 22.3997 12.4453 20.2581 9.1159 16.9129C5.7865 13.5676 3.66552 9.20916 3.0875 4.52499C3.06761 4.34189 3.08504 4.15665 3.13876 3.98048C3.19247 3.8043 3.28134 3.64085 3.4 3.49999C3.51714 3.36665 3.66133 3.25979 3.82298 3.18651C3.98462 3.11323 4.16002 3.07521 4.3375 3.07499H8.0875C8.37819 3.06852 8.66203 3.16359 8.89018 3.34383C9.11833 3.52407 9.27652 3.7782 9.3375 4.06249C9.3875 4.40415 9.45 4.74165 9.525 5.07499C9.6694 5.73392 9.86158 6.38146 10.1 7.01249L8.35 7.82499C8.20038 7.89364 8.06578 7.99117 7.95395 8.11198C7.84212 8.23279 7.75525 8.37451 7.69834 8.52898C7.64143 8.68346 7.61559 8.84765 7.62231 9.01214C7.62903 9.17663 7.66818 9.33817 7.7375 9.48749C9.5365 13.3409 12.6341 16.4385 16.4875 18.2375C16.7918 18.3625 17.1332 18.3625 17.4375 18.2375C17.5934 18.1817 17.7367 18.0956 17.859 17.984C17.9813 17.8724 18.0802 17.7376 18.15 17.5875L18.925 15.8375C19.5712 16.0686 20.2307 16.2606 20.9 16.4125C21.2333 16.4875 21.5708 16.55 21.9125 16.6C22.1968 16.661 22.4509 16.8192 22.6312 17.0473C22.8114 17.2755 22.9065 17.5593 22.9 17.85L22.925 21.75Z" fill="current"/>
</svg>
