<svg width="30" height="30" viewBox="0 0 30 30" fill="current" xmlns="http://www.w3.org/2000/svg">
<path d="M23.01 5.19C22.654 5.19 22.306 5.29557 22.01 5.49336C21.714 5.69114 21.4833 5.97226 21.347 6.30117C21.2108 6.63008 21.1751 6.992 21.2446 7.34116C21.314 7.69033 21.4855 8.01106 21.7372 8.26279C21.9889 8.51453 22.3097 8.68596 22.6588 8.75541C23.008 8.82487 23.3699 8.78922 23.6988 8.65298C24.0277 8.51675 24.3089 8.28604 24.5066 7.99003C24.7044 7.69402 24.81 7.34601 24.81 6.99C24.81 6.51261 24.6204 6.05477 24.2828 5.71721C23.9452 5.37964 23.4874 5.19 23.01 5.19V5.19ZM29.91 8.82C29.8808 7.57545 29.6477 6.3441 29.22 5.175C28.8386 4.1747 28.245 3.26892 27.48 2.52C26.7372 1.75114 25.8293 1.16126 24.825 0.795C23.659 0.354241 22.4263 0.115815 21.18 0.0899999C19.59 -8.3819e-08 19.08 0 15 0C10.92 0 10.41 -8.3819e-08 8.82 0.0899999C7.57373 0.115815 6.34101 0.354241 5.175 0.795C4.17251 1.16497 3.2654 1.75434 2.52 2.52C1.75114 3.26277 1.16126 4.17066 0.795 5.175C0.354241 6.34101 0.115815 7.57373 0.0899999 8.82C-8.3819e-08 10.41 0 10.92 0 15C0 19.08 -8.3819e-08 19.59 0.0899999 21.18C0.115815 22.4263 0.354241 23.659 0.795 24.825C1.16126 25.8293 1.75114 26.7372 2.52 27.48C3.2654 28.2457 4.17251 28.835 5.175 29.205C6.34101 29.6458 7.57373 29.8842 8.82 29.91C10.41 30 10.92 30 15 30C19.08 30 19.59 30 21.18 29.91C22.4263 29.8842 23.659 29.6458 24.825 29.205C25.8293 28.8387 26.7372 28.2489 27.48 27.48C28.2484 26.7339 28.8425 25.8273 29.22 24.825C29.6477 23.6559 29.8808 22.4246 29.91 21.18C29.91 19.59 30 19.08 30 15C30 10.92 30 10.41 29.91 8.82V8.82ZM27.21 21C27.1991 21.9522 27.0266 22.8956 26.7 23.79C26.4605 24.4428 26.0758 25.0326 25.575 25.515C25.0885 26.0108 24.4998 26.3947 23.85 26.64C22.9556 26.9666 22.0122 27.1391 21.06 27.15C19.56 27.225 19.005 27.24 15.06 27.24C11.115 27.24 10.56 27.24 9.06 27.15C8.07134 27.1685 7.08689 27.0163 6.15 26.7C5.52867 26.4421 4.96703 26.0592 4.5 25.575C4.00213 25.0931 3.62226 24.5028 3.39 23.85C3.02378 22.9427 2.82067 21.9779 2.79 21C2.79 19.5 2.7 18.945 2.7 15C2.7 11.055 2.7 10.5 2.79 9C2.79672 8.02658 2.97443 7.06192 3.315 6.15C3.57907 5.51687 3.9844 4.95249 4.5 4.5C4.95572 3.98425 5.51893 3.57464 6.15 3.3C7.06433 2.97007 8.028 2.79762 9 2.79C10.5 2.79 11.055 2.7 15 2.7C18.945 2.7 19.5 2.7 21 2.79C21.9522 2.80092 22.8956 2.97337 23.79 3.3C24.4716 3.55298 25.0834 3.96427 25.575 4.5C26.0666 4.96077 26.4506 5.5241 26.7 6.15C27.0334 7.0634 27.2059 8.02767 27.21 9C27.285 10.5 27.3 11.055 27.3 15C27.3 18.945 27.285 19.5 27.21 21ZM15 7.305C13.4787 7.30797 11.9924 7.76179 10.729 8.60913C9.46552 9.45647 8.48157 10.6593 7.90145 12.0656C7.32133 13.472 7.17109 15.0187 7.46969 16.5104C7.7683 18.0021 8.50235 19.3718 9.57911 20.4465C10.6559 21.5211 12.027 22.2525 13.5193 22.5482C15.0116 22.8439 16.558 22.6907 17.9632 22.1078C19.3684 21.525 20.5693 20.5387 21.4142 19.2736C22.2591 18.0084 22.71 16.5213 22.71 15C22.712 13.9877 22.5138 12.9849 22.1269 12.0494C21.7399 11.114 21.1718 10.2642 20.4553 9.54908C19.7388 8.83394 18.8879 8.26752 17.9517 7.88239C17.0155 7.49727 16.0123 7.30104 15 7.305V7.305ZM15 19.995C14.0121 19.995 13.0464 19.702 12.2249 19.1532C11.4035 18.6043 10.7633 17.8242 10.3852 16.9115C10.0072 15.9988 9.90824 14.9945 10.101 14.0255C10.2937 13.0566 10.7694 12.1666 11.468 11.468C12.1666 10.7694 13.0566 10.2937 14.0255 10.101C14.9945 9.90824 15.9988 10.0072 16.9115 10.3852C17.8242 10.7633 18.6043 11.4035 19.1532 12.2249C19.702 13.0464 19.995 14.0121 19.995 15C19.995 15.656 19.8658 16.3055 19.6148 16.9115C19.3638 17.5175 18.9958 18.0682 18.532 18.532C18.0682 18.9958 17.5175 19.3638 16.9115 19.6148C16.3055 19.8658 15.656 19.995 15 19.995V19.995Z" fill="current"/>
</svg>
