<svg width="26" height="20" viewBox="0 0 26 20" fill="none" xmlns="http://www.w3.org/2000/svg">
<path d="M21.75 0H4.25C3.25544 0 2.30161 0.395088 1.59835 1.09835C0.895088 1.80161 0.5 2.75544 0.5 3.75V16.25C0.5 17.2446 0.895088 18.1984 1.59835 18.9017C2.30161 19.6049 3.25544 20 4.25 20H21.75C22.7446 20 23.6984 19.6049 24.4017 18.9017C25.1049 18.1984 25.5 17.2446 25.5 16.25V3.75C25.5 2.75544 25.1049 1.80161 24.4017 1.09835C23.6984 0.395088 22.7446 0 21.75 0V0ZM4.25 2.5H21.75C22.0815 2.5 22.3995 2.6317 22.6339 2.86612C22.8683 3.10054 23 3.41848 23 3.75L13 9.85L3 3.75C3 3.41848 3.1317 3.10054 3.36612 2.86612C3.60054 2.6317 3.91848 2.5 4.25 2.5V2.5ZM23 16.25C23 16.5815 22.8683 16.8995 22.6339 17.1339C22.3995 17.3683 22.0815 17.5 21.75 17.5H4.25C3.91848 17.5 3.60054 17.3683 3.36612 17.1339C3.1317 16.8995 3 16.5815 3 16.25V6.6L12.35 12.3125C12.54 12.4222 12.7556 12.48 12.975 12.48C13.1944 12.48 13.41 12.4222 13.6 12.3125L23 6.6V16.25Z" fill="white"/>
</svg>
