<svg width="16" height="16" viewBox="0 0 24 24" fill="current" xmlns="http://www.w3.org/2000/svg">
<path d="M12 16.0003C11.8022 16.0003 11.6088 16.0589 11.4444 16.1688C11.2799 16.2787 11.1518 16.4349 11.0761 16.6176C11.0004 16.8003 10.9806 17.0014 11.0192 17.1954C11.0578 17.3893 11.153 17.5675 11.2929 17.7074C11.4327 17.8472 11.6109 17.9425 11.8049 17.9811C11.9989 18.0196 12.1999 17.9998 12.3827 17.9242C12.5654 17.8485 12.7216 17.7203 12.8314 17.5558C12.9413 17.3914 13 17.1981 13 17.0003C13 16.7351 12.8946 16.4807 12.7071 16.2932C12.5195 16.1056 12.2652 16.0003 12 16.0003ZM22.67 17.4703L14.62 3.47027C14.3598 3.00379 13.9798 2.61523 13.5192 2.34474C13.0586 2.07425 12.5341 1.93164 12 1.93164C11.4658 1.93164 10.9414 2.07425 10.4808 2.34474C10.0202 2.61523 9.64016 3.00379 9.37997 3.47027L1.37997 17.4703C1.11076 17.9243 0.96611 18.4413 0.960612 18.9691C0.955114 19.4969 1.08897 20.0168 1.34865 20.4763C1.60834 20.9358 1.98467 21.3187 2.43965 21.5863C2.89463 21.8539 3.41215 21.9967 3.93997 22.0003H20.06C20.592 22.0055 21.1159 21.8692 21.5779 21.6052C22.0399 21.3412 22.4233 20.9591 22.6889 20.4981C22.9546 20.0371 23.0928 19.5137 23.0895 18.9816C23.0861 18.4495 22.9414 17.9279 22.67 17.4703ZM20.94 19.4703C20.8523 19.6262 20.7244 19.7558 20.5697 19.8455C20.4149 19.9352 20.2389 19.9817 20.06 19.9803H3.93997C3.76108 19.9817 3.58507 19.9352 3.43029 19.8455C3.2755 19.7558 3.14762 19.6262 3.05997 19.4703C2.9722 19.3183 2.92599 19.1458 2.92599 18.9703C2.92599 18.7947 2.9722 18.6223 3.05997 18.4703L11.06 4.47027C11.1439 4.30647 11.2714 4.169 11.4284 4.07301C11.5854 3.97702 11.7659 3.92623 11.95 3.92623C12.134 3.92623 12.3145 3.97702 12.4715 4.07301C12.6286 4.169 12.7561 4.30647 12.84 4.47027L20.89 18.4703C20.9892 18.6201 21.0462 18.7939 21.055 18.9734C21.0638 19.1529 21.0241 19.3314 20.94 19.4903V19.4703ZM12 8.00027C11.7348 8.00027 11.4804 8.10563 11.2929 8.29316C11.1053 8.4807 11 8.73505 11 9.00027V13.0003C11 13.2655 11.1053 13.5198 11.2929 13.7074C11.4804 13.8949 11.7348 14.0003 12 14.0003C12.2652 14.0003 12.5195 13.8949 12.7071 13.7074C12.8946 13.5198 13 13.2655 13 13.0003V9.00027C13 8.73505 12.8946 8.4807 12.7071 8.29316C12.5195 8.10563 12.2652 8.00027 12 8.00027Z" fill="current"/>
</svg>
